<mxfile host="app.diagrams.net" modified="2022-06-28T11:46:11.673Z" agent="5.0 (Macintosh; Intel Mac OS X 10_15_7) AppleWebKit/537.36 (KHTML, like Gecko) Chrome/102.0.0.0 Safari/537.36" etag="JGMSfVjp-K_3j27IkMH9" version="20.0.3" type="github">
  <diagram id="0xu4ODIarpgeYXCgoIjj" name="Page-1">
    <mxGraphModel dx="717" dy="471" grid="1" gridSize="10" guides="1" tooltips="1" connect="1" arrows="1" fold="1" page="1" pageScale="1" pageWidth="3300" pageHeight="4681" math="0" shadow="0">
      <root>
        <mxCell id="0" />
        <mxCell id="1" parent="0" />
        <mxCell id="kzMdYT-0rKLTjuzgg5KM-9" value="X" style="ellipse;whiteSpace=wrap;html=1;aspect=fixed;fillColor=#dae8fc;strokeColor=#6c8ebf;" vertex="1" parent="1">
          <mxGeometry x="40" y="300" width="40" height="40" as="geometry" />
        </mxCell>
        <mxCell id="kzMdYT-0rKLTjuzgg5KM-18" value="" style="edgeStyle=orthogonalEdgeStyle;curved=1;orthogonalLoop=1;jettySize=auto;html=1;" edge="1" parent="1" source="kzMdYT-0rKLTjuzgg5KM-10" target="kzMdYT-0rKLTjuzgg5KM-15">
          <mxGeometry relative="1" as="geometry" />
        </mxCell>
        <mxCell id="kzMdYT-0rKLTjuzgg5KM-10" value="Encoder_T" style="rounded=1;whiteSpace=wrap;html=1;fillColor=#ffe6cc;strokeColor=#d79b00;" vertex="1" parent="1">
          <mxGeometry x="180" y="210" width="120" height="60" as="geometry" />
        </mxCell>
        <mxCell id="kzMdYT-0rKLTjuzgg5KM-12" value="" style="endArrow=classic;html=1;curved=1;entryX=0;entryY=0.5;entryDx=0;entryDy=0;" edge="1" parent="1" target="kzMdYT-0rKLTjuzgg5KM-10">
          <mxGeometry width="50" height="50" relative="1" as="geometry">
            <mxPoint x="80" y="310" as="sourcePoint" />
            <mxPoint x="130" y="260" as="targetPoint" />
            <Array as="points" />
          </mxGeometry>
        </mxCell>
        <mxCell id="kzMdYT-0rKLTjuzgg5KM-13" value="" style="endArrow=classic;html=1;curved=1;" edge="1" parent="1">
          <mxGeometry width="50" height="50" relative="1" as="geometry">
            <mxPoint x="80" y="330" as="sourcePoint" />
            <mxPoint x="180" y="390" as="targetPoint" />
            <Array as="points" />
          </mxGeometry>
        </mxCell>
        <mxCell id="kzMdYT-0rKLTjuzgg5KM-19" value="" style="edgeStyle=orthogonalEdgeStyle;curved=1;orthogonalLoop=1;jettySize=auto;html=1;" edge="1" parent="1" source="kzMdYT-0rKLTjuzgg5KM-14" target="kzMdYT-0rKLTjuzgg5KM-16">
          <mxGeometry relative="1" as="geometry" />
        </mxCell>
        <mxCell id="kzMdYT-0rKLTjuzgg5KM-14" value="Encoder_S" style="rounded=1;whiteSpace=wrap;html=1;fillColor=#ffe6cc;strokeColor=#d79b00;" vertex="1" parent="1">
          <mxGeometry x="180" y="360" width="120" height="60" as="geometry" />
        </mxCell>
        <mxCell id="kzMdYT-0rKLTjuzgg5KM-23" value="" style="edgeStyle=orthogonalEdgeStyle;curved=1;orthogonalLoop=1;jettySize=auto;html=1;" edge="1" parent="1" source="kzMdYT-0rKLTjuzgg5KM-15" target="kzMdYT-0rKLTjuzgg5KM-21">
          <mxGeometry relative="1" as="geometry" />
        </mxCell>
        <mxCell id="kzMdYT-0rKLTjuzgg5KM-15" value="H_T" style="ellipse;whiteSpace=wrap;html=1;aspect=fixed;fillColor=#dae8fc;strokeColor=#6c8ebf;" vertex="1" parent="1">
          <mxGeometry x="400" y="220" width="40" height="40" as="geometry" />
        </mxCell>
        <mxCell id="kzMdYT-0rKLTjuzgg5KM-24" value="" style="edgeStyle=orthogonalEdgeStyle;curved=1;orthogonalLoop=1;jettySize=auto;html=1;" edge="1" parent="1" source="kzMdYT-0rKLTjuzgg5KM-16" target="kzMdYT-0rKLTjuzgg5KM-22">
          <mxGeometry relative="1" as="geometry" />
        </mxCell>
        <mxCell id="kzMdYT-0rKLTjuzgg5KM-16" value="H_S" style="ellipse;whiteSpace=wrap;html=1;aspect=fixed;fillColor=#dae8fc;strokeColor=#6c8ebf;" vertex="1" parent="1">
          <mxGeometry x="400" y="370" width="40" height="40" as="geometry" />
        </mxCell>
        <mxCell id="kzMdYT-0rKLTjuzgg5KM-21" value="P_T" style="triangle;whiteSpace=wrap;html=1;fillColor=#f8cecc;strokeColor=#b85450;" vertex="1" parent="1">
          <mxGeometry x="580" y="210" width="60" height="60" as="geometry" />
        </mxCell>
        <mxCell id="kzMdYT-0rKLTjuzgg5KM-22" value="P_S" style="triangle;whiteSpace=wrap;html=1;fillColor=#f8cecc;strokeColor=#b85450;" vertex="1" parent="1">
          <mxGeometry x="580" y="360" width="60" height="60" as="geometry" />
        </mxCell>
        <mxCell id="kzMdYT-0rKLTjuzgg5KM-25" value="Represenation" style="text;html=1;strokeColor=none;fillColor=none;align=center;verticalAlign=middle;whiteSpace=wrap;rounded=0;" vertex="1" parent="1">
          <mxGeometry x="370" y="305" width="100" height="30" as="geometry" />
        </mxCell>
        <mxCell id="kzMdYT-0rKLTjuzgg5KM-26" value="logits" style="text;html=1;strokeColor=none;fillColor=none;align=center;verticalAlign=middle;whiteSpace=wrap;rounded=0;" vertex="1" parent="1">
          <mxGeometry x="580" y="305" width="60" height="30" as="geometry" />
        </mxCell>
        <mxCell id="kzMdYT-0rKLTjuzgg5KM-27" value="" style="shape=image;verticalLabelPosition=bottom;labelBackgroundColor=default;verticalAlign=top;aspect=fixed;imageAspect=0;image=data:image/png,iVBORw0KGgoAAAANSUhEUgAAAMoAAADECAYAAADeb77YAAAKC2lDQ1BJQ0MgUHJvZmlsZQAASImFlndYE+kWxr+Z9EZJQgSkt1CktwDSe1GQDqISEgg1hkAAARWVRQXXgogIKoKuUhRcCyCLiohiYRFQwL5BFgHlulgQBTV3wC3u3vvce+Y5z/d7zpzvnTPf/DEvACQ/tkCQDMsAkMJPFwZ6uqiFR0Sq4UYBhFwUQAUqbE6awDkgwA8g8cf693g/iPQicddwXus/7//PkOXGpnEAgAIQZnEEwnSEtyEcnJkumOfHCNOFyFAIT80zb4Fh9DzHfGX5hZ7gQFeElwCAJ7PZQh4ARBZSV8vg8BAdYjjCJnxuAh/heX0HTjybi/ANhJfEJYuyEH4335OSshapk7QQ1o35RpP3N/2YP/XZbN6fnJIs4vz+XvMnQo7lhwQhqyKSSiAOGIFkIAJZQA0IgBCsRSoJSCUWOfv/vo+1sM8V6RSAdciOBMAD8SAd2e/xjVbQglI6yARspCcWqfghl+v8d/wq+ZaxoAoxbv1V20IEwJ4vkUja/qr5zgJwTh15F/FfNWY/AFICAG7s4YiEGV9r80cPMIAIpAEdKAAVoAl0gSEwA1bADjgBd+AD/EEwiACrAQeZNwWZKhPkgk2gABSB3WAfKAeV4CioAafAGdAM2sAVcB3cBr1gADwCYjAKXoIp8B7MQRCEgygQDVKAVCFtyAAyg1iQA+QO+UGBUAQUDfEgPiSCcqEtUBFUDJVDVVAt9CN0AboC3YT6oAfQMDQBvYFmYRRMhumwMqwDG8Ms2Bn2hYPhVTAPToWz4Xx4J1wGV8Mn4Sb4CnwbHoDF8Et4GgVQJBQDpY4yRLFQrih/VCQqDiVEbUAVokpR1agGVCuqC3UXJUZNoj6isWgaWg1tiLZDe6FD0Bx0KnoDege6HF2DbkJ3ou+ih9FT6C8YCkYJY4CxxXhjwjE8TCamAFOKOY45j7mGGcCMYt5jsVgGlom1xnphI7CJ2BzsDuwhbCO2HduHHcFO43A4BZwBzh7nj2Pj0nEFuAO4k7jLuH7cKO4DnoRXxZvhPfCReD5+M74UX4e/hO/Hj+HnCDIEbYItwZ/AJawj7CIcI7QS7hBGCXNEWSKTaE8MJiYSNxHLiA3Ea8THxLckEkmDZENaQUog5ZHKSKdJN0jDpI9kKlmf7EqOIovIO8knyO3kB+S3FApFh+JEiaSkU3ZSailXKU8pH6RoUkZS3lJcqY1SFVJNUv1Sr6QJ0trSztKrpbOlS6XPSt+RnpQhyOjIuMqwZTbIVMhckBmSmZalyZrK+sumyO6QrZO9KTtOxVF1qO5ULjWfepR6lTpCQ9E0aa40Dm0L7RjtGm2UjqUz6d70RHoR/RS9hz4lR5WzkAuVy5KrkLsoJ2agGDoMb0YyYxfjDGOQMbtIeZHzothF2xc1LOpfNCO/WN5JPla+UL5RfkB+VkFNwV0hSWGPQrPCE0W0or7iCsVMxcOK1xQnF9MX2y3mLC5cfGbxQyVYSV8pUClH6ahSt9K0soqyp7JA+YDyVeVJFYaKk0qiSonKJZUJVZqqg2qCaonqZdUXanJqzmrJamVqnWpT6krqXuoi9Sr1HvU5DaZGiMZmjUaNJ5pETZZmnGaJZofmlJaq1jKtXK16rYfaBG2Wdrz2fu0u7Rkdpk6YzladZp1xpjzTm5nNrGc+1qXoOuqm6lbr3tPD6rH0kvQO6fXqw/qW+vH6Ffp3DGADK4MEg0MGfUswS2yW8JdULxkyJBs6G2YY1hsOGzGM/Iw2GzUbvTLWMo403mPcZfzFxNIk2eSYySNTqqmP6WbTVtM3ZvpmHLMKs3vmFHMP843mLeavLQwsYi0OW9y3pFkus9xq2WH52craSmjVYDVhrWUdbX3QeohFZwWwdrBu2GBsXGw22rTZfLS1sk23PWP7m52hXZJdnd34UubS2KXHlo7Ya9iz7avsxQ5qDtEORxzEjuqObMdqx2dOmk5cp+NOY856zonOJ51fuZi4CF3Ou8y42rqud213Q7l5uhW69bhT3UPcy92femh48DzqPaY8LT1zPNu9MF6+Xnu8hryVvTnetd5TPtY+6306fcm+Qb7lvs/89P2Efq3L4GU+y/Yue7xcezl/ebM/8Pf23+v/JIAZkBrw0wrsioAVFSueB5oG5gZ2BdGC1gTVBb0PdgneFfwoRDdEFNIRKh0aFVobOhPmFlYcJg43Dl8ffjtCMSIhoiUSFxkaeTxyeqX7yn0rR6MsowqiBlcxV2WturlacXXy6otrpNew15yNxkSHRddFf2L7s6vZ0zHeMQdjpjiunP2cl1wnbgl3ItY+tjh2LM4+rjhunGfP28ubiHeML42fTHBNKE94neiVWJk4k+SfdCJJkhyW3JiCT4lOucCn8pP4nWtV1mat7RMYCAoE4lTb1H2pU0Jf4fE0KG1VWks6Hfl5dot0Rd+JhjMcMioyPmSGZp7Nks3iZ3Wv01+3fd1Ytkf2DznoHE5OR6567qbc4fXO66s2QBtiNnRs1NyYv3E0zzOvZhNxU9KmnzebbC7e/G5L2JbWfOX8vPyR7zy/qy+QKhAWDG2121q5Db0tYVvPdvPtB7Z/KeQW3ioyKSot+rSDs+PW96bfl30v2Rm3s2eX1a7Du7G7+bsH9zjuqSmWLc4uHtm7bG9TiVpJYcm7fWv23Sy1KK3cT9wv2i8u8ytrOaB1YPeBT+Xx5QMVLhWNB5UObj84c4h7qP+w0+GGSuXKosrZIwlH7ld5VjVV61SXHsUezTj6/Fjosa4fWD/UHlc8XnT88wn+CXFNYE1nrXVtbZ1S3a56uF5UP3Ey6mTvKbdTLQ2GDVWNjMai0+C06PSLH6N/HDzje6bjLOtswzntcwfP084XNkFN65qmmuObxS0RLX0XfC50tNq1nv/J6KcTbeptFRflLu66RLyUf0lyOfvydLugffIK78pIx5qOR1fDr97rXNHZc8332o3rHtevdjl3Xb5hf6Ptpu3NC7dYt5pvW91u6rbsPv+z5c/ne6x6mu5Y32nptelt7Vvad6nfsf/KXbe71+9537s9sHygbzBk8P5Q1JD4Pvf++IPkB68fZjyce5T3GPO48InMk9KnSk+rf9H7pVFsJb447Dbc/Szo2aMRzsjLX9N+/TSa/5zyvHRMdax23Gy8bcJjovfFyhejLwUv5yYL/iX7r4OvdF+d+83pt+6p8KnR18LXkjc73iq8PfHO4l3HdMD00/cp7+dmCj8ofKj5yPrYNRs2OzaX+Qn3qeyz3ufWL75fHktSJBIBW8hesAIoJOG4OADenACAEgEArRfxDyu/eq7f/Qz0jbP5g4Ek5xvu+OrLFsIKgAZkCUTStR2A00jq5CHaSM5bxGAnAJub/5m/R1qcudnXZ5CFiDX5IJG8VQYA1wrAZ6FEMndIIvl8DBn2AQDtqf93tn/wVz84H1jEJR9xmqcBeW4e+Ef8GxNZwFfxwRvFAAAAbGVYSWZNTQAqAAAACAAEARoABQAAAAEAAAA+ARsABQAAAAEAAABGASgAAwAAAAEAAgAAh2kABAAAAAEAAABOAAAAAAAAAJAAAAABAAAAkAAAAAEAAqACAAQAAAABAAAAyqADAAQAAAABAAAAxAAAAADgvalVAAAACXBIWXMAABYlAAAWJQFJUiTwAAALiklEQVR4Ae2cy2oV3RaFV3RHzUXj3aiIseMVRBAEBZumZUPwCWz6LPbs2LJvUxQfwjQVRGxEQROjRmPuJibmnLHPqVglVb01CvbkW7DZVeuHOdf8Ro3a8W+MvqtXr26lzOv8+fPpwYMH6ciRI2nnzp2Zq/8tNzExkb59+5Y2Nzf/bhquBgcH0+joqKHy35J9fX3p1KlTqb+//++m4Up99HGutbW1ND8/72yxXfvjx49pYWFh+z73xcuXL7va78hdmHoQiEgAo0RUlZmyE8Ao2ZFSMCIBjBJRVWbKTgCjZEdKwYgEMEpEVZkpOwGMkh0pBSMSwCgRVWWm7AQwSnakFIxIAKNEVJWZshPAKNmRUjAiAYwSUVVmyk4Ao2RHSsGIBDBKRFWZKTsBjJIdKQUjEsAoEVVlpuwEMEp2pBSMSACjRFSVmbITwCjZkVIwIgGMElFVZspOoHPv3r3sRYeGhtLk5GT69OmTNchgYGAgnTlzxtpDcDY2NtLq6mp2Tv8W/Pz5szWMQ/2Gh4eTuDmXWP38+dPZYrv2yspKUpiFa0n7ra2t1Llz5072HkrFeP36tXUAHfratWvp2LFj9uQSiS7ju9fs7Kzd9BLdmYwjRr9+/UqLi4tuXN366rW+vm7rVST8dEZGRrI3UXE5UQNIGNfasWNH2rVrl90oerCccxR8IvX48+dPMZb1uw1mGoB/o1hlpHgUAhglipLMYSWAUax4KR6FAEaJoiRzWAlgFCteikchgFGiKMkcVgIYxYqX4lEIYJQoSjKHlQBGseKleBQCGCWKksxhJYBRrHgpHoUARomiJHNYCWAUK16KRyGAUaIoyRxWAhjFipfiUQhglChKMoeVAEax4qV4FAIYJYqSzGElgFGseCkehQBGiaIkc1gJYBQrXopHIYBRoijJHFYCHcUKOZZC8DqdjjXmZ3p6uhu05s6pUiTO3r17HZgqNZVR5Y7fkSb6OJdbj/LZ+/v7y7fZrwtWHYmTe/X19aXTp0+nIjwsd/2i3rNnz9KHDx+sAWjqdeXKlXT//v2ireVbOVhTU1PdPDRLg/8XVVKk2/TSvS2zKJdO+W6upRe+6ndcQWVq4F4zMzPp7du33WRCZy+lUbofLungfjuKUbRfFAUgFm99xzNQaGL7DdavinvpzxQ9YC6zF+dXH/c8ql98ir6O7yg9CjbueYr6vt+sYhK+IRCAAEYJICIj+AlgFD9jOgQggFECiMgIfgIYxc+YDgEIYJQAIjKCnwBG8TOmQwACGCWAiIzgJ4BR/IzpEIAARgkgIiP4CWAUP2M6BCCAUQKIyAh+AhjFz5gOAQhglAAiMoKfAEbxM6ZDAAIYJYCIjOAngFH8jOkQgABGCSAiI/gJYBQ/YzoEIIBRAojICH4CGMXPmA4BCGCUACIygp8ARvEzpkMAAn1LS0tbuedYXl5O79+/t6cevnr1Kn3//t2e6yU+zjTCov74+HhSkqNzKTBOH+daWVlJX758cbbYrn3y5ElrOOHTp0+7eWudgYGB7aa5LtbX15PMsra2Zs3SHRsbS/oopMy53rx5k548eeJs0U2JvHnzZtq3b5+1jyJ0pY1z/f7926p7+eyDg4Np//795a2s13v27Emap+N4U+rBLRIcnaHTMrniNN1GUY7u4uJiVgH+Laa3fBuJlEW65r/9c967kzvLZ9Xz68w5Vn09X/wbpUydawg0EMAoDWDYhkCZAEYp0+AaAg0EMEoDGLYhUCaAUco0uIZAAwGM0gCGbQiUCWCUMg2uIdBAAKM0gGEbAmUCGKVMg2sINBDAKA1g2IZAmQBGKdPgGgINBDBKAxi2IVAmgFHKNLiGQAMBjNIAhm0IlAlglDINriHQQACjNIBhGwJlAhilTINrCDQQwCgNYNiGQJkARinT4BoCDQQwSgMYtiFQJoBRyjS4hkADAYzSAIZtCJQJdBYWFsr3Wa4VgKbljhFSxM/u3bvtfY4fP55u3LiRhU1TEcXiTE5O2oPjjh49mg4cONB0jCz70t2tfXFQZZQ544pWV1e7s3Q+f/5c9Mz2rQA85Uc5MsPKh1RYnALQnKDUb2RkJF28eLHcOvu1QtYePnyYfvz4kb12ueDt27fT9evXy1vZr6WH8tbaWLOzs1Zmc3Nz3VDCjhyTe0l0LbdR9GuiJD+3UdTn4MGDuTFV6inBcWZmJn369Kmyn/vG8RdE3Rnb+kURN2fg3vZLv25I9iAAgSoB/jFf5cEdBGoJYJRaLGxCoEoAo1R5cAeBWgIYpRYLmxCoEsAoVR7cQaCWAEapxcImBKoEMEqVB3cQqCWAUWqxsAmBKgGMUuXBHQRqCWCUWixsQqBKAKNUeXAHgVoCGKUWC5sQqBLAKFUe3EGglgBGqcXCJgSqBDBKlQd3EKglgFFqsbAJgSoBjFLlwR0EaglglFosbEKgSgCjVHlwB4FaAhilFgubEKgSwChVHtxBoJZAxxH1okyvNpbOro87Gkc9Njc3rSOpfhHo52wkbRTx41zi1dYzoDnc+qtHZ35+Xt/ZlztrSwdeWlpKyl1yg9Isi4uL2RmVC8oot27dSko+dC7Vf/r0qbNFOnz4cLp8+bK1R1FcIYjKXXOtgYGB/yVFOoyiB2t4eNgegCfR9QC7jaL67jA/9RgfH0/9/f0uzbt1Hz16lF68eGHtceHChXT27Flrj6L46OhoN8mzuM/9rSRSad/Z2NjIXbtbT8IXH0uD/xZVIqXr/K4zN9WVGBJdwjiXfrmmp6edLZLyjfXnVxtLL2X9yepaqt99UboaUBcCkQjwf70iqcksNgIYxYaWwpEIYJRIajKLjQBGsaGlcCQCGCWSmsxiI4BRbGgpHIkARomkJrPYCGAUG1oKRyKAUSKpySw2AhjFhpbCkQhglEhqMouNAEaxoaVwJAIYJZKazGIjgFFsaCkciQBGiaQms9gIYBQbWgpHIoBRIqnJLDYCGMWGlsKRCGCUSGoyi40ARrGhpXAkAhglkprMYiPQcYSHdTqdboSMIngU9eJaSiN0523p7Orjjt/RHG302bt3bzcWyaWJ6io0bmpqytliu/aJEyesuV7SXZFFHWUw5V4qPDQ0ZM/1UkqkO+pUbJQdtrq6mhtTpZ6MIlHc85w7d66bSFlpnvlmZWUlPX/+PHPV+nJ6fg8dOlT/HzPsSntpYzGKfkX0S+UOwNMQ7je9WLuzetVDrPSL0oZR9KviXBMTE+nx48fOFtu1la556dKl7fvcF4Ue/BslN1nqhSSAUULKylC5CWCU3ESpF5IARgkpK0PlJoBRchOlXkgCGCWkrAyVmwBGyU2UeiEJYJSQsjJUbgIYJTdR6oUkgFFCyspQuQlglNxEqReSAEYJKStD5SaAUXITpV5IAhglpKwMlZsARslNlHohCWCUkLIyVG4CGCU3UeqFJIBRQsrKULkJYJTcRKkXkgBGCSkrQ+UmgFFyE6VeSAIYJaSsDJWbAEbJTZR6IQl0Qk5lGMqZeFkcVxlSRY5UsZf7W9lh7ln6+/vTvn37ch+9tp5mURCia0kPMbMYRYdXup6+naIUPVyQirqKiJX47rW0tNRKRKwiT51rbGws3b1719liu7Z0+fDhw/Z97ou5ubm0Z8+e1Pf+/fut3MX1ACtSVctpFCVFtrH0xlpcXLS3+v37d/ft5WykWdzcNIdM38aamZlJy8vLtlbv3r1LiqHtOB7k8i+Jo35BxVm76KFv9ZH5nauIU9W3eykb2rlUX2/hNtbXr1/T2tqarVXxUvGqbzs+hSHQLgGM0i5vuvUoAYzSo8Jx7HYJYJR2edOtRwlglB4VjmO3SwCjtMubbj1KAKP0qHAcu10CGKVd3nTrUQIYpUeF49jtEsAo7fKmW48SwCg9KhzHbpcARmmXN916lABG6VHhOHa7BDBKu7zp1qMEMEqPCsex2yWAUdrlTbceJYBRelQ4jt0ugf8AZvNnQTIT9WoAAAAASUVORK5CYII=;" vertex="1" parent="1">
          <mxGeometry x="730" y="285.07000000000005" width="72" height="69.87" as="geometry" />
        </mxCell>
        <mxCell id="kzMdYT-0rKLTjuzgg5KM-28" value="" style="endArrow=classic;html=1;curved=1;" edge="1" parent="1">
          <mxGeometry width="50" height="50" relative="1" as="geometry">
            <mxPoint x="650" y="390" as="sourcePoint" />
            <mxPoint x="720" y="340" as="targetPoint" />
          </mxGeometry>
        </mxCell>
        <mxCell id="kzMdYT-0rKLTjuzgg5KM-29" value="" style="endArrow=classic;html=1;curved=1;" edge="1" parent="1">
          <mxGeometry width="50" height="50" relative="1" as="geometry">
            <mxPoint x="650" y="240" as="sourcePoint" />
            <mxPoint x="720" y="300" as="targetPoint" />
          </mxGeometry>
        </mxCell>
        <mxCell id="kzMdYT-0rKLTjuzgg5KM-30" value="" style="endArrow=classic;startArrow=classic;html=1;curved=1;" edge="1" parent="1">
          <mxGeometry width="50" height="50" relative="1" as="geometry">
            <mxPoint x="730" y="265" as="sourcePoint" />
            <mxPoint x="800" y="265" as="targetPoint" />
          </mxGeometry>
        </mxCell>
        <mxCell id="kzMdYT-0rKLTjuzgg5KM-31" value="Batch Size" style="text;html=1;strokeColor=none;fillColor=none;align=center;verticalAlign=middle;whiteSpace=wrap;rounded=0;" vertex="1" parent="1">
          <mxGeometry x="736" y="220" width="60" height="30" as="geometry" />
        </mxCell>
        <mxCell id="kzMdYT-0rKLTjuzgg5KM-32" value="T-S correlation" style="text;html=1;strokeColor=#B09500;fillColor=#e3c800;align=center;verticalAlign=middle;whiteSpace=wrap;rounded=0;fontColor=#000000;" vertex="1" parent="1">
          <mxGeometry x="736" y="375" width="60" height="30" as="geometry" />
        </mxCell>
        <mxCell id="kzMdYT-0rKLTjuzgg5KM-33" value="" style="shape=image;verticalLabelPosition=bottom;labelBackgroundColor=default;verticalAlign=top;aspect=fixed;imageAspect=0;image=data:image/png,iVBORw0KGgoAAAANSUhEUgAAAMoAAADECAYAAADeb77YAAAKC2lDQ1BJQ0MgUHJvZmlsZQAASImFlndYE+kWxr+Z9EZJQgSkt1CktwDSe1GQDqISEgg1hkAAARWVRQXXgogIKoKuUhRcCyCLiohiYRFQwL5BFgHlulgQBTV3wC3u3vvce+Y5z/d7zpzvnTPf/DEvACQ/tkCQDMsAkMJPFwZ6uqiFR0Sq4UYBhFwUQAUqbE6awDkgwA8g8cf693g/iPQicddwXus/7//PkOXGpnEAgAIQZnEEwnSEtyEcnJkumOfHCNOFyFAIT80zb4Fh9DzHfGX5hZ7gQFeElwCAJ7PZQh4ARBZSV8vg8BAdYjjCJnxuAh/heX0HTjybi/ANhJfEJYuyEH4335OSshapk7QQ1o35RpP3N/2YP/XZbN6fnJIs4vz+XvMnQo7lhwQhqyKSSiAOGIFkIAJZQA0IgBCsRSoJSCUWOfv/vo+1sM8V6RSAdciOBMAD8SAd2e/xjVbQglI6yARspCcWqfghl+v8d/wq+ZaxoAoxbv1V20IEwJ4vkUja/qr5zgJwTh15F/FfNWY/AFICAG7s4YiEGV9r80cPMIAIpAEdKAAVoAl0gSEwA1bADjgBd+AD/EEwiACrAQeZNwWZKhPkgk2gABSB3WAfKAeV4CioAafAGdAM2sAVcB3cBr1gADwCYjAKXoIp8B7MQRCEgygQDVKAVCFtyAAyg1iQA+QO+UGBUAQUDfEgPiSCcqEtUBFUDJVDVVAt9CN0AboC3YT6oAfQMDQBvYFmYRRMhumwMqwDG8Ms2Bn2hYPhVTAPToWz4Xx4J1wGV8Mn4Sb4CnwbHoDF8Et4GgVQJBQDpY4yRLFQrih/VCQqDiVEbUAVokpR1agGVCuqC3UXJUZNoj6isWgaWg1tiLZDe6FD0Bx0KnoDege6HF2DbkJ3ou+ih9FT6C8YCkYJY4CxxXhjwjE8TCamAFOKOY45j7mGGcCMYt5jsVgGlom1xnphI7CJ2BzsDuwhbCO2HduHHcFO43A4BZwBzh7nj2Pj0nEFuAO4k7jLuH7cKO4DnoRXxZvhPfCReD5+M74UX4e/hO/Hj+HnCDIEbYItwZ/AJawj7CIcI7QS7hBGCXNEWSKTaE8MJiYSNxHLiA3Ea8THxLckEkmDZENaQUog5ZHKSKdJN0jDpI9kKlmf7EqOIovIO8knyO3kB+S3FApFh+JEiaSkU3ZSailXKU8pH6RoUkZS3lJcqY1SFVJNUv1Sr6QJ0trSztKrpbOlS6XPSt+RnpQhyOjIuMqwZTbIVMhckBmSmZalyZrK+sumyO6QrZO9KTtOxVF1qO5ULjWfepR6lTpCQ9E0aa40Dm0L7RjtGm2UjqUz6d70RHoR/RS9hz4lR5WzkAuVy5KrkLsoJ2agGDoMb0YyYxfjDGOQMbtIeZHzothF2xc1LOpfNCO/WN5JPla+UL5RfkB+VkFNwV0hSWGPQrPCE0W0or7iCsVMxcOK1xQnF9MX2y3mLC5cfGbxQyVYSV8pUClH6ahSt9K0soqyp7JA+YDyVeVJFYaKk0qiSonKJZUJVZqqg2qCaonqZdUXanJqzmrJamVqnWpT6krqXuoi9Sr1HvU5DaZGiMZmjUaNJ5pETZZmnGaJZofmlJaq1jKtXK16rYfaBG2Wdrz2fu0u7Rkdpk6YzladZp1xpjzTm5nNrGc+1qXoOuqm6lbr3tPD6rH0kvQO6fXqw/qW+vH6Ffp3DGADK4MEg0MGfUswS2yW8JdULxkyJBs6G2YY1hsOGzGM/Iw2GzUbvTLWMo403mPcZfzFxNIk2eSYySNTqqmP6WbTVtM3ZvpmHLMKs3vmFHMP843mLeavLQwsYi0OW9y3pFkus9xq2WH52craSmjVYDVhrWUdbX3QeohFZwWwdrBu2GBsXGw22rTZfLS1sk23PWP7m52hXZJdnd34UubS2KXHlo7Ya9iz7avsxQ5qDtEORxzEjuqObMdqx2dOmk5cp+NOY856zonOJ51fuZi4CF3Ou8y42rqud213Q7l5uhW69bhT3UPcy92femh48DzqPaY8LT1zPNu9MF6+Xnu8hryVvTnetd5TPtY+6306fcm+Qb7lvs/89P2Efq3L4GU+y/Yue7xcezl/ebM/8Pf23+v/JIAZkBrw0wrsioAVFSueB5oG5gZ2BdGC1gTVBb0PdgneFfwoRDdEFNIRKh0aFVobOhPmFlYcJg43Dl8ffjtCMSIhoiUSFxkaeTxyeqX7yn0rR6MsowqiBlcxV2WturlacXXy6otrpNew15yNxkSHRddFf2L7s6vZ0zHeMQdjpjiunP2cl1wnbgl3ItY+tjh2LM4+rjhunGfP28ubiHeML42fTHBNKE94neiVWJk4k+SfdCJJkhyW3JiCT4lOucCn8pP4nWtV1mat7RMYCAoE4lTb1H2pU0Jf4fE0KG1VWks6Hfl5dot0Rd+JhjMcMioyPmSGZp7Nks3iZ3Wv01+3fd1Ytkf2DznoHE5OR6567qbc4fXO66s2QBtiNnRs1NyYv3E0zzOvZhNxU9KmnzebbC7e/G5L2JbWfOX8vPyR7zy/qy+QKhAWDG2121q5Db0tYVvPdvPtB7Z/KeQW3ioyKSot+rSDs+PW96bfl30v2Rm3s2eX1a7Du7G7+bsH9zjuqSmWLc4uHtm7bG9TiVpJYcm7fWv23Sy1KK3cT9wv2i8u8ytrOaB1YPeBT+Xx5QMVLhWNB5UObj84c4h7qP+w0+GGSuXKosrZIwlH7ld5VjVV61SXHsUezTj6/Fjosa4fWD/UHlc8XnT88wn+CXFNYE1nrXVtbZ1S3a56uF5UP3Ey6mTvKbdTLQ2GDVWNjMai0+C06PSLH6N/HDzje6bjLOtswzntcwfP084XNkFN65qmmuObxS0RLX0XfC50tNq1nv/J6KcTbeptFRflLu66RLyUf0lyOfvydLugffIK78pIx5qOR1fDr97rXNHZc8332o3rHtevdjl3Xb5hf6Ptpu3NC7dYt5pvW91u6rbsPv+z5c/ne6x6mu5Y32nptelt7Vvad6nfsf/KXbe71+9537s9sHygbzBk8P5Q1JD4Pvf++IPkB68fZjyce5T3GPO48InMk9KnSk+rf9H7pVFsJb447Dbc/Szo2aMRzsjLX9N+/TSa/5zyvHRMdax23Gy8bcJjovfFyhejLwUv5yYL/iX7r4OvdF+d+83pt+6p8KnR18LXkjc73iq8PfHO4l3HdMD00/cp7+dmCj8ofKj5yPrYNRs2OzaX+Qn3qeyz3ufWL75fHktSJBIBW8hesAIoJOG4OADenACAEgEArRfxDyu/eq7f/Qz0jbP5g4Ek5xvu+OrLFsIKgAZkCUTStR2A00jq5CHaSM5bxGAnAJub/5m/R1qcudnXZ5CFiDX5IJG8VQYA1wrAZ6FEMndIIvl8DBn2AQDtqf93tn/wVz84H1jEJR9xmqcBeW4e+Ef8GxNZwFfxwRvFAAAAbGVYSWZNTQAqAAAACAAEARoABQAAAAEAAAA+ARsABQAAAAEAAABGASgAAwAAAAEAAgAAh2kABAAAAAEAAABOAAAAAAAAAJAAAAABAAAAkAAAAAEAAqACAAQAAAABAAAAyqADAAQAAAABAAAAxAAAAADgvalVAAAACXBIWXMAABYlAAAWJQFJUiTwAAALiklEQVR4Ae2cy2oV3RaFV3RHzUXj3aiIseMVRBAEBZumZUPwCWz6LPbs2LJvUxQfwjQVRGxEQROjRmPuJibmnLHPqVglVb01CvbkW7DZVeuHOdf8Ro3a8W+MvqtXr26lzOv8+fPpwYMH6ciRI2nnzp2Zq/8tNzExkb59+5Y2Nzf/bhquBgcH0+joqKHy35J9fX3p1KlTqb+//++m4Up99HGutbW1ND8/72yxXfvjx49pYWFh+z73xcuXL7va78hdmHoQiEgAo0RUlZmyE8Ao2ZFSMCIBjBJRVWbKTgCjZEdKwYgEMEpEVZkpOwGMkh0pBSMSwCgRVWWm7AQwSnakFIxIAKNEVJWZshPAKNmRUjAiAYwSUVVmyk4Ao2RHSsGIBDBKRFWZKTsBjJIdKQUjEsAoEVVlpuwEMEp2pBSMSACjRFSVmbITwCjZkVIwIgGMElFVZspOoHPv3r3sRYeGhtLk5GT69OmTNchgYGAgnTlzxtpDcDY2NtLq6mp2Tv8W/Pz5szWMQ/2Gh4eTuDmXWP38+dPZYrv2yspKUpiFa0n7ra2t1Llz5072HkrFeP36tXUAHfratWvp2LFj9uQSiS7ju9fs7Kzd9BLdmYwjRr9+/UqLi4tuXN366rW+vm7rVST8dEZGRrI3UXE5UQNIGNfasWNH2rVrl90oerCccxR8IvX48+dPMZb1uw1mGoB/o1hlpHgUAhglipLMYSWAUax4KR6FAEaJoiRzWAlgFCteikchgFGiKMkcVgIYxYqX4lEIYJQoSjKHlQBGseKleBQCGCWKksxhJYBRrHgpHoUARomiJHNYCWAUK16KRyGAUaIoyRxWAhjFipfiUQhglChKMoeVAEax4qV4FAIYJYqSzGElgFGseCkehQBGiaIkc1gJYBQrXopHIYBRoijJHFYCHcUKOZZC8DqdjjXmZ3p6uhu05s6pUiTO3r17HZgqNZVR5Y7fkSb6OJdbj/LZ+/v7y7fZrwtWHYmTe/X19aXTp0+nIjwsd/2i3rNnz9KHDx+sAWjqdeXKlXT//v2ireVbOVhTU1PdPDRLg/8XVVKk2/TSvS2zKJdO+W6upRe+6ndcQWVq4F4zMzPp7du33WRCZy+lUbofLungfjuKUbRfFAUgFm99xzNQaGL7DdavinvpzxQ9YC6zF+dXH/c8ql98ir6O7yg9CjbueYr6vt+sYhK+IRCAAEYJICIj+AlgFD9jOgQggFECiMgIfgIYxc+YDgEIYJQAIjKCnwBG8TOmQwACGCWAiIzgJ4BR/IzpEIAARgkgIiP4CWAUP2M6BCCAUQKIyAh+AhjFz5gOAQhglAAiMoKfAEbxM6ZDAAIYJYCIjOAngFH8jOkQgABGCSAiI/gJYBQ/YzoEIIBRAojICH4CGMXPmA4BCGCUACIygp8ARvEzpkMAAn1LS0tbuedYXl5O79+/t6cevnr1Kn3//t2e6yU+zjTCov74+HhSkqNzKTBOH+daWVlJX758cbbYrn3y5ElrOOHTp0+7eWudgYGB7aa5LtbX15PMsra2Zs3SHRsbS/oopMy53rx5k548eeJs0U2JvHnzZtq3b5+1jyJ0pY1z/f7926p7+eyDg4Np//795a2s13v27Emap+N4U+rBLRIcnaHTMrniNN1GUY7u4uJiVgH+Laa3fBuJlEW65r/9c967kzvLZ9Xz68w5Vn09X/wbpUydawg0EMAoDWDYhkCZAEYp0+AaAg0EMEoDGLYhUCaAUco0uIZAAwGM0gCGbQiUCWCUMg2uIdBAAKM0gGEbAmUCGKVMg2sINBDAKA1g2IZAmQBGKdPgGgINBDBKAxi2IVAmgFHKNLiGQAMBjNIAhm0IlAlglDINriHQQACjNIBhGwJlAhilTINrCDQQwCgNYNiGQJkARinT4BoCDQQwSgMYtiFQJoBRyjS4hkADAYzSAIZtCJQJdBYWFsr3Wa4VgKbljhFSxM/u3bvtfY4fP55u3LiRhU1TEcXiTE5O2oPjjh49mg4cONB0jCz70t2tfXFQZZQ544pWV1e7s3Q+f/5c9Mz2rQA85Uc5MsPKh1RYnALQnKDUb2RkJF28eLHcOvu1QtYePnyYfvz4kb12ueDt27fT9evXy1vZr6WH8tbaWLOzs1Zmc3Nz3VDCjhyTe0l0LbdR9GuiJD+3UdTn4MGDuTFV6inBcWZmJn369Kmyn/vG8RdE3Rnb+kURN2fg3vZLv25I9iAAgSoB/jFf5cEdBGoJYJRaLGxCoEoAo1R5cAeBWgIYpRYLmxCoEsAoVR7cQaCWAEapxcImBKoEMEqVB3cQqCWAUWqxsAmBKgGMUuXBHQRqCWCUWixsQqBKAKNUeXAHgVoCGKUWC5sQqBLAKFUe3EGglgBGqcXCJgSqBDBKlQd3EKglgFFqsbAJgSoBjFLlwR0EaglglFosbEKgSgCjVHlwB4FaAhilFgubEKgSwChVHtxBoJZAxxH1okyvNpbOro87Gkc9Njc3rSOpfhHo52wkbRTx41zi1dYzoDnc+qtHZ35+Xt/ZlztrSwdeWlpKyl1yg9Isi4uL2RmVC8oot27dSko+dC7Vf/r0qbNFOnz4cLp8+bK1R1FcIYjKXXOtgYGB/yVFOoyiB2t4eNgegCfR9QC7jaL67jA/9RgfH0/9/f0uzbt1Hz16lF68eGHtceHChXT27Flrj6L46OhoN8mzuM/9rSRSad/Z2NjIXbtbT8IXH0uD/xZVIqXr/K4zN9WVGBJdwjiXfrmmp6edLZLyjfXnVxtLL2X9yepaqt99UboaUBcCkQjwf70iqcksNgIYxYaWwpEIYJRIajKLjQBGsaGlcCQCGCWSmsxiI4BRbGgpHIkARomkJrPYCGAUG1oKRyKAUSKpySw2AhjFhpbCkQhglEhqMouNAEaxoaVwJAIYJZKazGIjgFFsaCkciQBGiaQms9gIYBQbWgpHIoBRIqnJLDYCGMWGlsKRCGCUSGoyi40ARrGhpXAkAhglkprMYiPQcYSHdTqdboSMIngU9eJaSiN0523p7Orjjt/RHG302bt3bzcWyaWJ6io0bmpqytliu/aJEyesuV7SXZFFHWUw5V4qPDQ0ZM/1UkqkO+pUbJQdtrq6mhtTpZ6MIlHc85w7d66bSFlpnvlmZWUlPX/+PHPV+nJ6fg8dOlT/HzPsSntpYzGKfkX0S+UOwNMQ7je9WLuzetVDrPSL0oZR9KviXBMTE+nx48fOFtu1la556dKl7fvcF4Ue/BslN1nqhSSAUULKylC5CWCU3ESpF5IARgkpK0PlJoBRchOlXkgCGCWkrAyVmwBGyU2UeiEJYJSQsjJUbgIYJTdR6oUkgFFCyspQuQlglNxEqReSAEYJKStD5SaAUXITpV5IAhglpKwMlZsARslNlHohCWCUkLIyVG4CGCU3UeqFJIBRQsrKULkJYJTcRKkXkgBGCSkrQ+UmgFFyE6VeSAIYJaSsDJWbAEbJTZR6IQl0Qk5lGMqZeFkcVxlSRY5UsZf7W9lh7ln6+/vTvn37ch+9tp5mURCia0kPMbMYRYdXup6+naIUPVyQirqKiJX47rW0tNRKRKwiT51rbGws3b1719liu7Z0+fDhw/Z97ou5ubm0Z8+e1Pf+/fut3MX1ACtSVctpFCVFtrH0xlpcXLS3+v37d/ft5WykWdzcNIdM38aamZlJy8vLtlbv3r1LiqHtOB7k8i+Jo35BxVm76KFv9ZH5nauIU9W3eykb2rlUX2/hNtbXr1/T2tqarVXxUvGqbzs+hSHQLgGM0i5vuvUoAYzSo8Jx7HYJYJR2edOtRwlglB4VjmO3SwCjtMubbj1KAKP0qHAcu10CGKVd3nTrUQIYpUeF49jtEsAo7fKmW48SwCg9KhzHbpcARmmXN916lABG6VHhOHa7BDBKu7zp1qMEMEqPCsex2yWAUdrlTbceJYBRelQ4jt0ugf8AZvNnQTIT9WoAAAAASUVORK5CYII=;" vertex="1" parent="1">
          <mxGeometry x="490" y="285.06000000000006" width="72" height="69.87" as="geometry" />
        </mxCell>
        <mxCell id="kzMdYT-0rKLTjuzgg5KM-34" value="Representation correlation" style="text;html=1;strokeColor=#B09500;fillColor=#e3c800;align=center;verticalAlign=middle;whiteSpace=wrap;rounded=0;fontColor=#000000;" vertex="1" parent="1">
          <mxGeometry x="450" y="440" width="150" height="30" as="geometry" />
        </mxCell>
        <mxCell id="kzMdYT-0rKLTjuzgg5KM-36" value="" style="endArrow=classic;html=1;curved=1;" edge="1" parent="1">
          <mxGeometry width="50" height="50" relative="1" as="geometry">
            <mxPoint x="530" y="354.93" as="sourcePoint" />
            <mxPoint x="530" y="430" as="targetPoint" />
          </mxGeometry>
        </mxCell>
        <mxCell id="kzMdYT-0rKLTjuzgg5KM-37" value="" style="curved=1;endArrow=classic;html=1;" edge="1" parent="1">
          <mxGeometry width="50" height="50" relative="1" as="geometry">
            <mxPoint x="530" y="480" as="sourcePoint" />
            <mxPoint x="750" y="420" as="targetPoint" />
            <Array as="points">
              <mxPoint x="570" y="510" />
              <mxPoint x="700" y="500" />
            </Array>
          </mxGeometry>
        </mxCell>
        <mxCell id="kzMdYT-0rKLTjuzgg5KM-38" value="optimizing" style="text;html=1;strokeColor=none;fillColor=none;align=center;verticalAlign=middle;whiteSpace=wrap;rounded=0;" vertex="1" parent="1">
          <mxGeometry x="520" y="520" width="250" height="30" as="geometry" />
        </mxCell>
      </root>
    </mxGraphModel>
  </diagram>
</mxfile>
